<svg width="38" height="39" viewBox="0 0 38 39" fill="none" xmlns="http://www.w3.org/2000/svg">
<path d="M18.6575 9.33876C13.4373 9.33876 9.22432 13.7309 9.22432 19.1731C9.22432 24.6153 13.4373 29.0074 18.6575 29.0074C23.8776 29.0074 28.0906 24.6153 28.0906 19.1731C28.0906 13.7309 23.8776 9.33876 18.6575 9.33876ZM18.6575 25.5647C15.2816 25.5647 12.5266 22.6925 12.5266 19.1731C12.5266 15.6536 15.2816 12.7815 18.6575 12.7815C22.0333 12.7815 24.7883 15.6536 24.7883 19.1731C24.7883 22.6925 22.0333 25.5647 18.6575 25.5647ZM28.4769 6.64403C27.2581 6.64403 26.2739 7.67014 26.2739 8.94079C26.2739 10.2114 27.2581 11.2375 28.4769 11.2375C29.6957 11.2375 30.68 10.2162 30.68 8.94079C30.6804 8.63906 30.6236 8.34023 30.513 8.06141C30.4024 7.78258 30.2402 7.52924 30.0355 7.31589C29.8309 7.10254 29.5879 6.93338 29.3204 6.81809C29.053 6.7028 28.7663 6.64365 28.4769 6.64403ZM37.0454 19.1731C37.0454 16.5263 37.0684 13.9035 36.9258 11.2615C36.7832 8.19278 36.1117 5.46928 33.9593 3.22527C31.8022 0.976464 29.1944 0.281205 26.2509 0.132563C23.7121 -0.0160786 21.1963 0.00789594 18.6621 0.00789594C16.1233 0.00789594 13.6074 -0.0160786 11.0732 0.132563C8.12969 0.281205 5.5173 0.981259 3.36483 3.22527C1.20777 5.47408 0.540871 8.19278 0.398293 11.2615C0.255715 13.9083 0.278712 16.5311 0.278712 19.1731C0.278712 21.8151 0.255715 24.4427 0.398293 27.0847C0.540871 30.1534 1.21237 32.8769 3.36483 35.1209C5.5219 37.3697 8.12969 38.065 11.0732 38.2136C13.612 38.3623 16.1278 38.3383 18.6621 38.3383C21.2009 38.3383 23.7167 38.3623 26.2509 38.2136C29.1944 38.065 31.8068 37.3649 33.9593 35.1209C36.1163 32.8721 36.7832 30.1534 36.9258 27.0847C37.073 24.4427 37.0454 21.8199 37.0454 19.1731ZM32.998 30.4795C32.6623 31.3521 32.2575 32.0042 31.609 32.6755C30.9605 33.3516 30.3396 33.7735 29.5026 34.1236C27.0833 35.1257 21.3388 34.9003 18.6575 34.9003C15.9761 34.9003 10.227 35.1257 7.80774 34.1284C6.97067 33.7783 6.34517 33.3564 5.70127 32.6803C5.05277 32.0042 4.64803 31.3569 4.31229 30.4843C3.35563 27.9573 3.5718 21.9685 3.5718 19.1731C3.5718 16.3777 3.35563 10.384 4.31229 7.86193C4.64803 6.98926 5.05277 6.33716 5.70127 5.66587C6.34977 4.99459 6.97067 4.56784 7.80774 4.21781C10.227 3.22048 15.9761 3.44584 18.6575 3.44584C21.3388 3.44584 27.088 3.22048 29.5072 4.21781C30.3442 4.56784 30.9697 4.98979 31.6136 5.66587C32.2621 6.34195 32.6669 6.98926 33.0026 7.86193C33.9593 10.384 33.7431 16.3777 33.7431 19.1731C33.7431 21.9685 33.9593 27.9573 32.998 30.4795Z" fill="white"/>
</svg>
