<svg width="40" height="35" viewBox="0 0 40 35" fill="none" xmlns="http://www.w3.org/2000/svg">
<path fill-rule="evenodd" clip-rule="evenodd" d="M35.5091 0.548425C35.9918 0.340607 36.5202 0.268932 37.0392 0.340859C37.5582 0.412787 38.0488 0.625688 38.4601 0.957403C38.8713 1.28912 39.1882 1.72752 39.3776 2.22698C39.567 2.72644 39.622 3.26869 39.537 3.7973L35.1067 31.2849C34.6769 33.9363 31.8327 35.4569 29.4554 34.1361C27.4668 33.0312 24.5133 31.3288 21.8566 29.5525C20.5283 28.6634 16.4593 25.8161 16.9594 23.7901C17.3891 22.0578 24.2261 15.548 28.1329 11.6777C29.6664 10.1572 28.9671 9.28003 27.1562 10.6787C22.6595 14.1514 15.4396 19.4323 13.0525 20.9188C10.9467 22.2296 9.8489 22.4534 8.53619 22.2296C6.1413 21.822 3.92025 21.1906 2.10748 20.4213C-0.342116 19.3823 -0.222957 15.9376 2.10552 14.9346L35.5091 0.548425Z" fill="white"/>
</svg>
