<svg width="55" height="58" viewBox="0 0 55 58" fill="none" xmlns="http://www.w3.org/2000/svg">
<path d="M43.9022 36.4609L38.2137 35.7732C37.5449 35.69 36.8669 35.7684 36.2307 36.0025C35.5946 36.2366 35.0168 36.6203 34.5409 37.1248L30.4201 41.488C24.0629 38.0637 18.8955 32.5924 15.6615 25.8612L19.8047 21.4743C20.7677 20.4547 21.238 19.0319 21.0812 17.5854L20.4317 11.6098C20.3052 10.4528 19.7811 9.38557 18.9591 8.61151C18.1372 7.83745 17.075 7.4107 15.975 7.4126H12.1006C9.56992 7.4126 7.46474 9.64161 7.62151 12.3212C8.80847 32.572 24.1046 48.7441 43.2079 50.0009C45.7386 50.1669 47.8438 47.9379 47.8438 45.2583V41.156C47.8662 38.761 46.1641 36.7454 43.9022 36.4609Z" fill="white"/>
</svg>
